<?xml version="1.0" encoding="UTF-8"?>
<svg width="25px" height="25px" viewBox="0 0 25 25" version="1.1" xmlns="http://www.w3.org/2000/svg" xmlns:xlink="http://www.w3.org/1999/xlink">
    <!-- Generator: Sketch 51.3 (57544) - http://www.bohemiancoding.com/sketch -->
    <title>ic_explorar</title>
    <desc>Created with Sketch.</desc>
    <defs></defs>
    <g id="Page-1" stroke="none" stroke-width="1" fill="none" fill-rule="evenodd">
        <g id="icones" transform="translate(-306.000000, -513.000000)">
            <g id="ic_explorar" transform="translate(306.583337, 513.131836)">
                <rect id="ic_container" x="0" y="0" width="24" height="24"></rect>
                <path d="M9,11.24 L9,7.5 C9,6.12 10.12,5 11.5,5 C12.88,5 14,6.12 14,7.5 L14,11.24 C15.21,10.43 16,9.06 16,7.5 C16,5.01 13.99,3 11.5,3 C9.01,3 7,5.01 7,7.5 C7,9.06 7.79,10.43 9,11.24 Z M18.84,15.87 L14.3,13.61 C14.13,13.54 13.95,13.5 13.76,13.5 L13,13.5 L13,7.5 C13,6.67 12.33,6 11.5,6 C10.67,6 10,6.67 10,7.5 L10,18.24 C6.4,17.48 6.46,17.49 6.33,17.49 C6.02,17.49 5.74,17.62 5.54,17.82 L4.75,18.62 L9.69,23.56 C9.96,23.83 10.34,24 10.75,24 L17.54,24 C18.29,24 18.87,23.45 18.98,22.72 L19.73,17.45 C19.74,17.38 19.75,17.31 19.75,17.25 C19.75,16.63 19.37,16.09 18.84,15.87 Z" id="Shape" fill="#000000" fill-rule="nonzero"></path>
            </g>
        </g>
    </g>
</svg>