<?xml version="1.0" encoding="UTF-8"?>
<svg width="25px" height="25px" viewBox="0 0 25 25" version="1.1" xmlns="http://www.w3.org/2000/svg" xmlns:xlink="http://www.w3.org/1999/xlink">
    <!-- Generator: Sketch 51.3 (57544) - http://www.bohemiancoding.com/sketch -->
    <title>ic_menu_governismo</title>
    <desc>Created with Sketch.</desc>
    <defs></defs>
    <g id="Page-1" stroke="none" stroke-width="1" fill="none" fill-rule="evenodd">
        <g id="icones" transform="translate(-306.000000, -197.000000)">
            <g id="ic_menu_governismo" transform="translate(306.583337, 197.027344)">
                <polygon id="ic_container" points="0 0 24 0 24 24 0 24"></polygon>
                <g id="Shape" transform="translate(2.000000, 4.065918)" fill="#000000" fill-rule="nonzero">
                    <path d="M10,18 L10,16 C14.42,16 18,12.42 18,8 C18,5.79 17.1,3.79 15.66,2.34 L17.07,0.93 C18.88,2.74 20,5.24 20,8 C20,13.52 15.52,18 10,18 Z M10,14 C6.69,14 4,11.31 4,8 C4,6.34 4.67,4.84 5.76,3.76 L7.17,5.17 C6.45,5.9 6,6.9 6,8 C6,10.21 7.79,12 10,12 C12.21,12 14,10.21 14,8 C14,6.9 13.55,5.9 12.83,5.17 L14.24,3.76 C15.33,4.84 16,6.34 16,8 C16,11.31 13.31,14 10,14 Z M10,18 C4.48,18 0,13.52 0,8 C0,5.24 1.12,2.74 2.93,0.93 L4.34,2.34 C2.9,3.79 2,5.79 2,8 C2,12.42 5.58,16 10,16 L10,18 Z M10,10 C8.8954305,10 8,9.1045695 8,8 C8,6.8954305 8.8954305,6 10,6 C11.1045695,6 12,6.8954305 12,8 C12,9.1045695 11.1045695,10 10,10 Z" id="Combined-Shape"></path>
                </g>
            </g>
        </g>
    </g>
</svg>