<?xml version="1.0" encoding="UTF-8"?>
<svg width="25px" height="25px" viewBox="0 0 25 25" version="1.1" xmlns="http://www.w3.org/2000/svg" xmlns:xlink="http://www.w3.org/1999/xlink">
    <!-- Generator: Sketch 51.3 (57544) - http://www.bohemiancoding.com/sketch -->
    <title>ic_seta_ver_perfil</title>
    <desc>Created with Sketch.</desc>
    <defs></defs>
    <g id="Page-1" stroke="none" stroke-width="1" fill="none" fill-rule="evenodd">
        <g id="icones" transform="translate(-306.000000, -554.000000)">
            <g id="ic_seta_ver_perfil" transform="translate(318.583337, 566.833333) rotate(-90.000000) translate(-318.583337, -566.833333) translate(306.583337, 554.833333)">
                <rect id="ic_container" x="0" y="0" width="24" height="24"></rect>
                <path d="M12,4 C16.41,4 20,7.59 20,12 C20,16.41 16.41,20 12,20 C7.59,20 4,16.41 4,12 C4,7.59 7.59,4 12,4 Z M12,2 C6.48,2 2,6.48 2,12 C2,17.52 6.48,22 12,22 C17.52,22 22,17.52 22,12 C22,6.48 17.52,2 12,2 Z M13,12 L13,8 L11,8 L11,12 L8,12 L12,16 L16,12 L13,12 Z" id="Shape" fill="#000000" fill-rule="nonzero"></path>
            </g>
        </g>
    </g>
</svg>